<svg xmlns="http://www.w3.org/2000/svg" xmlns:xlink="http://www.w3.org/1999/xlink" width="1200" height="502" viewBox="0 0 1200 502" role="img"><style>@media(prefers-reduced-motion:reduce){.motion{display:none}}</style><defs><radialGradient id="depth" cx="85%" cy="15%" r="95%"><stop stop-color="#f06cab" stop-opacity=".17"/><stop offset="1" stop-color="#120d1c" stop-opacity="0"/></radialGradient><linearGradient id="accent"><stop stop-color="#ff9c65"/><stop offset="1" stop-color="#f06cab"/></linearGradient><filter id="glow" x="-100%" y="-100%" width="300%" height="300%"><feGaussianBlur stdDeviation="5"/></filter><filter id="shadow" x="-30%" y="-30%" width="160%" height="160%"><feDropShadow dx="0" dy="16" stdDeviation="20" flood-color="#000" flood-opacity=".55"/></filter></defs><rect width="1200" height="502" rx="22" fill="#120d1c"/><rect width="1200" height="502" rx="22" fill="url(#depth)"/><text x="44" y="55" fill="#ffa66d" font-family="Bahnschrift,Segoe UI,sans-serif" font-size="26" font-weight="600">PROJECT TOOLKITS</text><text x="44" y="94" fill="#c6b7c7" font-family="Bahnschrift,Segoe UI,sans-serif" font-size="25" font-weight="400">Tools used in the work, grouped by project.</text><rect x="44" y="134" width="360" height="280" rx="20" fill="#17101f" fill-opacity=".65" stroke="#ffa66d" stroke-opacity=".23"/><g transform="translate(64 157) scale(0.85)" fill="none" stroke="#ffa66d" stroke-width="1.8" stroke-linecap="round" stroke-linejoin="round"><rect x="3" y="4" width="34" height="32" rx="7"/><path d="M10 14h20M10 26h20"/><circle cx="15" cy="14" r="3" fill="#17101f"/><circle cx="25" cy="26" r="3" fill="#17101f"/></g><text x="111" y="182" fill="#f4edf0" font-family="Bahnschrift,Segoe UI,sans-serif" font-size="29" font-weight="600">GSwitcher</text><text x="64" y="218" fill="#c6b7c7" font-family="Bahnschrift,Segoe UI,sans-serif" font-size="21" font-weight="400">Windows systems utility</text><rect x="64" y="244" width="48.9" height="38" rx="12" fill="#ffa66d" fill-opacity=".06" stroke="#ffa66d" stroke-opacity=".24"/><text x="76" y="270" fill="#f4edf0" font-family="Bahnschrift,Segoe UI,sans-serif" font-size="21" font-weight="400">C#</text><rect x="121.94" y="244" width="60.9" height="38" rx="12" fill="#ffa66d" fill-opacity=".06" stroke="#ffa66d" stroke-opacity=".24"/><text x="133.94" y="270" fill="#f4edf0" font-family="Bahnschrift,Segoe UI,sans-serif" font-size="21" font-weight="400">WPF</text><rect x="191.85" y="244" width="144.7" height="38" rx="12" fill="#ffa66d" fill-opacity=".06" stroke="#ffa66d" stroke-opacity=".24"/><text x="203.85" y="270" fill="#f4edf0" font-family="Bahnschrift,Segoe UI,sans-serif" font-size="21" font-weight="400">PowerShell</text><rect x="64" y="291" width="168.6" height="38" rx="12" fill="#ffa66d" fill-opacity=".06" stroke="#ffa66d" stroke-opacity=".24"/><text x="76" y="317" fill="#f4edf0" font-family="Bahnschrift,Segoe UI,sans-serif" font-size="21" font-weight="400">Windows APIs</text><rect x="241.64" y="291" width="60.9" height="38" rx="12" fill="#ffa66d" fill-opacity=".06" stroke="#ffa66d" stroke-opacity=".24"/><text x="253.64" y="317" fill="#f4edf0" font-family="Bahnschrift,Segoe UI,sans-serif" font-size="21" font-weight="400">WMI</text><rect x="64" y="338" width="120.8" height="38" rx="12" fill="#ffa66d" fill-opacity=".06" stroke="#ffa66d" stroke-opacity=".24"/><text x="76" y="364" fill="#f4edf0" font-family="Bahnschrift,Segoe UI,sans-serif" font-size="21" font-weight="400">WebView2</text><path d="M66 396 C144 379 304 409 382 396 C304 384 144 409 66 396Z" fill="none" stroke="#ffa66d" opacity=".13" stroke-width="1.2"/><rect x="420" y="134" width="360" height="280" rx="20" fill="#17101f" fill-opacity=".65" stroke="#f36491" stroke-opacity=".23"/><g transform="translate(440 157) scale(0.85)" fill="none" stroke="#f36491" stroke-width="1.8" stroke-linecap="round" stroke-linejoin="round"><path d="M2 20C11 6 29 6 38 20C29 34 11 34 2 20Z"/><circle cx="20" cy="20" r="6"/><path d="M20 1v5M20 34v5"/></g><text x="487" y="182" fill="#f4edf0" font-family="Bahnschrift,Segoe UI,sans-serif" font-size="29" font-weight="600">DDDS</text><text x="440" y="218" fill="#c6b7c7" font-family="Bahnschrift,Segoe UI,sans-serif" font-size="21" font-weight="400">Computer vision + edge</text><rect x="440" y="244" width="96.8" height="38" rx="12" fill="#f36491" fill-opacity=".06" stroke="#f36491" stroke-opacity=".24"/><text x="452" y="270" fill="#f4edf0" font-family="Bahnschrift,Segoe UI,sans-serif" font-size="21" font-weight="400">Python</text><rect x="545.8199999999999" y="244" width="96.8" height="38" rx="12" fill="#f36491" fill-opacity=".06" stroke="#f36491" stroke-opacity=".24"/><text x="557.8199999999999" y="270" fill="#f4edf0" font-family="Bahnschrift,Segoe UI,sans-serif" font-size="21" font-weight="400">OpenCV</text><rect x="440" y="291" width="132.7" height="38" rx="12" fill="#f36491" fill-opacity=".06" stroke="#f36491" stroke-opacity=".24"/><text x="452" y="317" fill="#f4edf0" font-family="Bahnschrift,Segoe UI,sans-serif" font-size="21" font-weight="400">MediaPipe</text><rect x="440" y="338" width="204.5" height="38" rx="12" fill="#f36491" fill-opacity=".06" stroke="#f36491" stroke-opacity=".24"/><text x="452" y="364" fill="#f4edf0" font-family="Bahnschrift,Segoe UI,sans-serif" font-size="21" font-weight="400">TensorFlow Lite</text><path d="M442 396 C520 379 680 409 758 396 C680 384 520 409 442 396Z" fill="none" stroke="#f36491" opacity=".13" stroke-width="1.2"/><rect x="796" y="134" width="360" height="280" rx="20" fill="#17101f" fill-opacity=".65" stroke="#b79aff" stroke-opacity=".23"/><g transform="translate(816 157) scale(0.85)" fill="none" stroke="#b79aff" stroke-width="1.8" stroke-linecap="round" stroke-linejoin="round"><path d="M2 9l12-5 13 5 11-5v27l-11 5-13-5-12 5ZM14 4v27M27 9v27"/><circle cx="20" cy="18" r="3"/></g><text x="863" y="182" fill="#f4edf0" font-family="Bahnschrift,Segoe UI,sans-serif" font-size="29" font-weight="600">NIBRAS</text><text x="816" y="218" fill="#c6b7c7" font-family="Bahnschrift,Segoe UI,sans-serif" font-size="21" font-weight="400">Offline-first architecture</text><rect x="816" y="244" width="108.8" height="38" rx="12" fill="#b79aff" fill-opacity=".06" stroke="#b79aff" stroke-opacity=".24"/><text x="828" y="270" fill="#f4edf0" font-family="Bahnschrift,Segoe UI,sans-serif" font-size="21" font-weight="400">Flutter</text><rect x="933.79" y="244" width="72.9" height="38" rx="12" fill="#b79aff" fill-opacity=".06" stroke="#b79aff" stroke-opacity=".24"/><text x="945.79" y="270" fill="#f4edf0" font-family="Bahnschrift,Segoe UI,sans-serif" font-size="21" font-weight="400">Dart</text><rect x="1015.67" y="244" width="108.8" height="38" rx="12" fill="#b79aff" fill-opacity=".06" stroke="#b79aff" stroke-opacity=".24"/><text x="1027.67" y="270" fill="#f4edf0" font-family="Bahnschrift,Segoe UI,sans-serif" font-size="21" font-weight="400">FastAPI</text><rect x="816" y="291" width="96.8" height="38" rx="12" fill="#b79aff" fill-opacity=".06" stroke="#b79aff" stroke-opacity=".24"/><text x="828" y="317" fill="#f4edf0" font-family="Bahnschrift,Segoe UI,sans-serif" font-size="21" font-weight="400">SQLite</text><path d="M818 396 C896 379 1056 409 1134 396 C1056 384 896 409 818 396Z" fill="none" stroke="#b79aff" opacity=".13" stroke-width="1.2"/><text x="44" y="469" fill="#c6b7c7" font-family="Bahnschrift,Segoe UI,sans-serif" font-size="22" font-weight="400">Technology choices reflect the projects, rather than equal expertise in every tool.</text></svg>