<svg xmlns="http://www.w3.org/2000/svg" xmlns:xlink="http://www.w3.org/1999/xlink" width="1200" height="478" viewBox="0 0 1200 478" role="img"><style>@media(prefers-reduced-motion:reduce){.motion{display:none}}</style><defs><radialGradient id="depth" cx="85%" cy="15%" r="95%"><stop stop-color="#f06cab" stop-opacity=".17"/><stop offset="1" stop-color="#120d1c" stop-opacity="0"/></radialGradient><linearGradient id="accent"><stop stop-color="#ff9c65"/><stop offset="1" stop-color="#f06cab"/></linearGradient><filter id="glow" x="-100%" y="-100%" width="300%" height="300%"><feGaussianBlur stdDeviation="5"/></filter><filter id="shadow" x="-30%" y="-30%" width="160%" height="160%"><feDropShadow dx="0" dy="16" stdDeviation="20" flood-color="#000" flood-opacity=".55"/></filter></defs><rect width="1200" height="478" rx="22" fill="#120d1c"/><rect width="1200" height="478" rx="22" fill="url(#depth)"/><text x="44" y="54" fill="#ffa66d" font-family="Bahnschrift,Segoe UI,sans-serif" font-size="24" font-weight="600">ONE ENGINEERING MINDSET</text><text x="44" y="92" fill="#c6b7c7" font-family="Bahnschrift,Segoe UI,sans-serif" font-size="25" font-weight="400">Different problems. Connected questions.</text><rect x="44" y="133" width="266" height="238" rx="20" fill="#17101f" fill-opacity=".7" stroke="#ffa66d" stroke-opacity=".24"/><text x="64" y="165" fill="#ffa66d" font-family="Bahnschrift,Segoe UI,sans-serif" font-size="20" font-weight="500">01</text><g transform="translate(239 151) scale(0.9)" fill="none" stroke="#ffa66d" stroke-width="1.8" stroke-linecap="round" stroke-linejoin="round"><path d="M2 20C11 6 29 6 38 20C29 34 11 34 2 20Z"/><circle cx="20" cy="20" r="6"/><path d="M20 1v5M20 34v5"/></g><text x="64" y="217" fill="#f4edf0" font-family="Bahnschrift,Segoe UI,sans-serif" font-size="30" font-weight="600">DDDS</text><text x="64" y="254" fill="#ffa66d" font-family="Bahnschrift,Segoe UI,sans-serif" font-size="21" font-weight="500">Perception</text><text x="64" y="320" fill="#c6b7c7" font-family="Bahnschrift,Segoe UI,sans-serif" font-size="20" font-weight="400">Vision under constraints</text><text x="64" y="347" fill="#c6b7c7" font-family="Bahnschrift,Segoe UI,sans-serif" font-size="20" font-weight="400">Local inference tests</text><circle class="motion" cx="286" cy="354" r="4" fill="#ffa66d" opacity=".5"><animate attributeName="opacity" values=".3;.75;.3" dur="8s" begin="-0s" calcMode="spline" keyTimes="0;.5;1" keySplines=".42 0 .58 1;.42 0 .58 1" repeatCount="indefinite"/></circle><rect x="326" y="133" width="266" height="238" rx="20" fill="#17101f" fill-opacity=".7" stroke="#f36491" stroke-opacity=".24"/><text x="346" y="165" fill="#f36491" font-family="Bahnschrift,Segoe UI,sans-serif" font-size="20" font-weight="500">02</text><g transform="translate(521 151) scale(0.9)" fill="none" stroke="#f36491" stroke-width="1.8" stroke-linecap="round" stroke-linejoin="round"><rect x="3" y="4" width="34" height="32" rx="7"/><path d="M10 14h20M10 26h20"/><circle cx="15" cy="14" r="3" fill="#17101f"/><circle cx="25" cy="26" r="3" fill="#17101f"/></g><text x="346" y="217" fill="#f4edf0" font-family="Bahnschrift,Segoe UI,sans-serif" font-size="30" font-weight="600">GSwitcher</text><text x="346" y="254" fill="#f36491" font-family="Bahnschrift,Segoe UI,sans-serif" font-size="21" font-weight="500">Control +</text><text x="346" y="279" fill="#f36491" font-family="Bahnschrift,Segoe UI,sans-serif" font-size="21" font-weight="500">verification</text><text x="346" y="320" fill="#c6b7c7" font-family="Bahnschrift,Segoe UI,sans-serif" font-size="20" font-weight="400">Observe the machine</text><text x="346" y="347" fill="#c6b7c7" font-family="Bahnschrift,Segoe UI,sans-serif" font-size="20" font-weight="400">Request, verify, recover</text><circle class="motion" cx="568" cy="354" r="4" fill="#f36491" opacity=".5"><animate attributeName="opacity" values=".3;.75;.3" dur="8s" begin="-2s" calcMode="spline" keyTimes="0;.5;1" keySplines=".42 0 .58 1;.42 0 .58 1" repeatCount="indefinite"/></circle><rect x="608" y="133" width="266" height="238" rx="20" fill="#17101f" fill-opacity=".7" stroke="#b79aff" stroke-opacity=".24"/><text x="628" y="165" fill="#b79aff" font-family="Bahnschrift,Segoe UI,sans-serif" font-size="20" font-weight="500">03</text><g transform="translate(803 151) scale(0.9)" fill="none" stroke="#b79aff" stroke-width="1.8" stroke-linecap="round" stroke-linejoin="round"><path d="M2 9l12-5 13 5 11-5v27l-11 5-13-5-12 5ZM14 4v27M27 9v27"/><circle cx="20" cy="18" r="3"/></g><text x="628" y="217" fill="#f4edf0" font-family="Bahnschrift,Segoe UI,sans-serif" font-size="30" font-weight="600">NIBRAS</text><text x="628" y="254" fill="#b79aff" font-family="Bahnschrift,Segoe UI,sans-serif" font-size="21" font-weight="500">Architecture +</text><text x="628" y="279" fill="#b79aff" font-family="Bahnschrift,Segoe UI,sans-serif" font-size="21" font-weight="500">trust</text><text x="628" y="320" fill="#c6b7c7" font-family="Bahnschrift,Segoe UI,sans-serif" font-size="20" font-weight="400">Offline-first information</text><text x="628" y="347" fill="#c6b7c7" font-family="Bahnschrift,Segoe UI,sans-serif" font-size="20" font-weight="400">Design around uncertainty</text><circle class="motion" cx="850" cy="354" r="4" fill="#b79aff" opacity=".5"><animate attributeName="opacity" values=".3;.75;.3" dur="8s" begin="-4s" calcMode="spline" keyTimes="0;.5;1" keySplines=".42 0 .58 1;.42 0 .58 1" repeatCount="indefinite"/></circle><rect x="890" y="133" width="266" height="238" rx="20" fill="#17101f" fill-opacity=".7" stroke="#ffa66d" stroke-opacity=".24"/><text x="910" y="165" fill="#ffa66d" font-family="Bahnschrift,Segoe UI,sans-serif" font-size="20" font-weight="500">04</text><g transform="translate(1085 151) scale(0.9)" fill="none" stroke="#ffa66d" stroke-width="1.8" stroke-linecap="round" stroke-linejoin="round"><path d="M11 13a9 9 0 1 1 15 7c-5 3-6 4-6 9"/><circle cx="20" cy="35" r="1"/><path d="M4 8l-3-3M36 8l3-3"/></g><text x="910" y="217" fill="#f4edf0" font-family="Bahnschrift,Segoe UI,sans-serif" font-size="30" font-weight="600">Next questions</text><text x="910" y="254" fill="#ffa66d" font-family="Bahnschrift,Segoe UI,sans-serif" font-size="21" font-weight="500">EXPLORING</text><text x="910" y="320" fill="#c6b7c7" font-family="Bahnschrift,Segoe UI,sans-serif" font-size="20" font-weight="400">Local intelligence</text><text x="910" y="347" fill="#c6b7c7" font-family="Bahnschrift,Segoe UI,sans-serif" font-size="20" font-weight="400">Bounded agentic action</text><circle class="motion" cx="1132" cy="354" r="4" fill="#ffa66d" opacity=".5"><animate attributeName="opacity" values=".3;.75;.3" dur="8s" begin="-6s" calcMode="spline" keyTimes="0;.5;1" keySplines=".42 0 .58 1;.42 0 .58 1" repeatCount="indefinite"/></circle><path d="M58 398 C260 378 430 418 600 398 C785 378 969 418 1142 398 C1166 398 1166 442 1142 442 C969 462 785 422 600 442 C430 462 260 422 58 442 C34 442 34 398 58 398Z" fill="none" stroke="#ffa66d" opacity=".13" stroke-width="1.2"/><circle class="motion" r="3.5" fill="#ffa66d" opacity=".8"><animateMotion path="M58 398 C260 378 430 418 600 398 C785 378 969 418 1142 398 C1166 398 1166 442 1142 442 C969 462 785 422 600 442 C430 462 260 422 58 442 C34 442 34 398 58 398Z" dur="22s" begin="-0s" calcMode="paced" repeatCount="indefinite"/></circle></svg>